<svg width="1200" height="900" viewBox="0 0 1200 900" fill="none" xmlns="http://www.w3.org/2000/svg">
  <rect width="1200" height="900" rx="48" fill="url(#bg)"/>
  <g opacity="0.45">
    <path d="M111 120H1089" stroke="#5CD9FF" stroke-opacity="0.35" stroke-width="2"/>
    <path d="M111 780H1089" stroke="#A88CFF" stroke-opacity="0.35" stroke-width="2"/>
    <path d="M160 72V828" stroke="#5CD9FF" stroke-opacity="0.18" stroke-width="2"/>
    <path d="M1040 72V828" stroke="#8E7DFF" stroke-opacity="0.18" stroke-width="2"/>
  </g>
  <rect x="315" y="165" width="570" height="570" rx="44" fill="url(#chip)" stroke="#A7C2FF" stroke-opacity="0.34" stroke-width="4"/>
  <rect x="390" y="240" width="420" height="420" rx="28" fill="#091126" stroke="#60D2FF" stroke-opacity="0.42" stroke-width="3"/>
  <rect x="450" y="300" width="300" height="300" rx="16" fill="url(#core)" stroke="#9D8DFF" stroke-opacity="0.55" stroke-width="3"/>
  <circle cx="600" cy="450" r="102" fill="url(#glow)" fill-opacity="0.9"/>
  <circle cx="600" cy="450" r="56" fill="#F6FBFF" fill-opacity="0.95"/>
  <g opacity="0.9" stroke-linecap="round">
    <path d="M600 252V182" stroke="#6CE2FF" stroke-width="8"/>
    <path d="M600 718V648" stroke="#6CE2FF" stroke-width="8"/>
    <path d="M402 450H332" stroke="#B196FF" stroke-width="8"/>
    <path d="M868 450H798" stroke="#B196FF" stroke-width="8"/>
    <path d="M469 319L419 269" stroke="#60D2FF" stroke-width="7"/>
    <path d="M731 581L781 631" stroke="#60D2FF" stroke-width="7"/>
    <path d="M731 319L781 269" stroke="#B196FF" stroke-width="7"/>
    <path d="M469 581L419 631" stroke="#B196FF" stroke-width="7"/>
  </g>
  <g fill="#D2DEFF" fill-opacity="0.95">
    <circle cx="600" cy="182" r="12"/>
    <circle cx="600" cy="718" r="12"/>
    <circle cx="332" cy="450" r="12"/>
    <circle cx="868" cy="450" r="12"/>
    <circle cx="419" cy="269" r="10"/>
    <circle cx="781" cy="269" r="10"/>
    <circle cx="419" cy="631" r="10"/>
    <circle cx="781" cy="631" r="10"/>
  </g>
  <g opacity="0.35">
    <rect x="56" y="56" width="1088" height="788" rx="34" stroke="url(#frame)" stroke-width="2"/>
  </g>
  <defs>
    <linearGradient id="bg" x1="95" y1="90" x2="1088" y2="828" gradientUnits="userSpaceOnUse">
      <stop stop-color="#081126"/>
      <stop offset="0.56" stop-color="#070C1B"/>
      <stop offset="1" stop-color="#09061A"/>
    </linearGradient>
    <linearGradient id="chip" x1="315" y1="165" x2="885" y2="735" gradientUnits="userSpaceOnUse">
      <stop stop-color="#0E1A43"/>
      <stop offset="0.52" stop-color="#16255A"/>
      <stop offset="1" stop-color="#0B1130"/>
    </linearGradient>
    <radialGradient id="core" cx="0" cy="0" r="1" gradientUnits="userSpaceOnUse" gradientTransform="translate(600 450) rotate(90) scale(150)">
      <stop stop-color="#2C5EFF"/>
      <stop offset="0.56" stop-color="#17295F"/>
      <stop offset="1" stop-color="#0A1023"/>
    </radialGradient>
    <radialGradient id="glow" cx="0" cy="0" r="1" gradientUnits="userSpaceOnUse" gradientTransform="translate(600 450) rotate(90) scale(102)">
      <stop stop-color="#99EDFF"/>
      <stop offset="0.52" stop-color="#668DFF" stop-opacity="0.92"/>
      <stop offset="1" stop-color="#8E7DFF" stop-opacity="0.2"/>
    </radialGradient>
    <linearGradient id="frame" x1="56" y1="56" x2="1144" y2="844" gradientUnits="userSpaceOnUse">
      <stop stop-color="#5CD9FF"/>
      <stop offset="1" stop-color="#8E7DFF"/>
    </linearGradient>
  </defs>
</svg>
